<?xml version="1.0" standalone="no"?>
<!DOCTYPE svg PUBLIC "-//W3C//DTD SVG 20010904//EN"
 "http://www.w3.org/TR/2001/REC-SVG-20010904/DTD/svg10.dtd">
<svg version="1.0" xmlns="http://www.w3.org/2000/svg"
 width="280.000000pt" height="280.000000pt" viewBox="0 0 280.000000 280.000000"
 preserveAspectRatio="xMidYMid meet">
<metadata>
Created by potrace 1.11, written by Peter Selinger 2001-2013
</metadata>
<g transform="translate(0.000000,280.000000) scale(0.100000,-0.100000)"
fill="#000000" stroke="none">
<path d="M1523 2783 c-8 -3 -13 -23 -13 -49 l0 -44 -43 0 c-55 0 -87 -22 -87
-60 0 -16 5 -32 10 -35 17 -11 1 -25 -28 -25 -36 0 -92 -35 -92 -58 0 -39 41
-61 137 -74 102 -14 100 -11 73 -88 -18 -50 -40 -162 -40 -203 0 -23 -7 -64
-15 -91 -9 -31 -15 -90 -15 -157 l0 -107 -47 -41 c-45 -38 -52 -41 -109 -41
-43 0 -65 5 -74 15 -7 8 -17 15 -22 15 -22 0 -68 62 -68 92 0 17 -4 45 -9 62
-5 17 -17 58 -26 91 -26 90 -57 144 -122 212 -87 90 -129 106 -283 107 -133 0
-185 -11 -280 -63 -43 -23 -119 -79 -150 -111 -30 -30 -118 -148 -134 -178
-37 -73 15 -82 106 -18 101 70 197 126 216 126 13 -1 10 -6 -12 -22 -60 -45
-176 -179 -176 -204 0 -7 -5 -14 -11 -16 -7 -2 -12 -24 -13 -48 -1 -39 2 -45
22 -48 15 -2 38 10 69 37 25 23 87 61 138 86 99 49 119 55 89 28 -35 -32 -71
-88 -67 -105 6 -26 33 -26 95 0 62 27 95 25 128 -8 26 -26 26 -70 -1 -151 -48
-151 -59 -208 -59 -311 0 -106 11 -153 62 -251 38 -75 150 -168 273 -228 39
-18 72 -36 75 -40 3 -3 40 -25 84 -48 115 -61 200 -140 242 -225 19 -39 34
-76 34 -83 0 -10 -40 -13 -188 -13 l-189 0 -41 44 c-23 25 -42 49 -42 55 0 5
-14 21 -31 35 l-31 26 -262 0 c-190 0 -265 -3 -274 -12 -25 -25 -13 -67 34
-126 26 -31 50 -59 54 -62 4 -3 12 -14 18 -26 10 -18 3 -31 -53 -102 -68 -83
-79 -117 -49 -146 13 -14 52 -16 271 -16 l255 0 37 38 c20 21 57 62 82 90 l45
52 197 0 197 0 0 -130 0 -130 70 0 69 0 3 128 3 127 233 3 c248 3 249 2 223
-46 -5 -9 -12 -40 -16 -69 -6 -50 -6 -52 19 -59 25 -6 96 19 203 71 29 14 57
25 63 25 5 0 10 3 10 8 0 4 26 15 58 26 31 10 84 33 117 50 52 27 60 35 63 63
3 29 -1 33 -50 56 -85 40 -129 57 -148 57 -10 0 -20 4 -22 9 -4 10 -178 93
-231 111 -46 14 -87 6 -87 -18 0 -18 12 -73 24 -109 l7 -23 -226 0 -226 0 7
23 c14 44 55 123 90 170 38 53 181 163 307 237 45 27 91 57 102 67 11 10 37
31 57 47 43 32 118 133 143 191 22 52 30 192 17 278 -18 112 -62 192 -204 375
l-89 112 38 0 c27 0 48 9 72 29 28 23 34 34 34 70 0 25 -7 49 -18 61 -21 23
-89 60 -111 60 -19 0 -77 29 -86 44 -12 17 -9 69 5 86 7 9 39 24 72 35 47 16
61 25 63 43 3 16 -4 25 -25 32 -61 23 -60 22 -43 27 19 6 58 22 90 37 14 6 26
21 28 31 4 26 -35 48 -113 64 -33 7 -69 15 -80 17 -13 3 -32 29 -54 74 -19 39
-38 70 -43 70 -4 0 -8 7 -8 16 0 9 -15 31 -34 50 -45 45 -82 46 -100 3 -11
-27 -14 -28 -26 -14 -30 36 -97 55 -137 38z"/>
</g>
</svg>
